# xmcd
#
# Track frame offsets:
#	150
#	9600
#	21148
#	32140
#	42857
#	54048
#	65927
#	76684
#	87680
#	97163
#	109064
#	121313
#	132311
#	144325
#	155029
#	165290
#	179244
#	191117
#	201086
#	213000
#	226284
#	236400
#	246332
#	257684
#	268723
#
# Disc length: 3750 seconds
#
# Revision: 0
# Processed by: cddbd v1.5.2PL0 Copyright (c) Steve Scherf et al.
# Submitted via: audiograbber 1.83.01
#
DISCID=610ea419
DTITLE=George Jones - Cup Of Loneliness (The Classic Mercury Years) Limited Edi
DTITLE=tion - Disc 2
DYEAR=1994
DGENRE=Country
TTITLE0=Big Harlan Taylor
TTITLE1=Everything Ain't Right
TTITLE2=Relief Is Just A Swallow Away
TTITLE3=Talk To Me Lonesome Heart
TTITLE4=Accidentally On Purpose
TTITLE5=Revenooer Man
TTITLE6=The Last Town I Painted
TTITLE7=Your Old Standby
TTITLE8=Watcha Gonna Do
TTITLE9=You Better Treat You Man Right
TTITLE10=Out Of Control
TTITLE11=Glad To Let Her Go
TTITLE12=You're Still On My Mind
TTITLE13=Tarnished Angel
TTITLE14=Slave Lover
TTITLE15=Family Bible
TTITLE16=Window Up Above
TTITLE17=Nobody's Lonesome For Me
TTITLE18=Heartaches By The Number
TTITLE19=I Love You Because
TTITLE20=(I'll Be There) If You Ever Want Me
TTITLE21=If You Got The Money (I Got The Time)
TTITLE22=Life To Go
TTITLE23=Tender Years
TTITLE24=Achin', Breakin' Heart
EXTD=
EXTT0=
EXTT1=
EXTT2=
EXTT3=
EXTT4=
EXTT5=
EXTT6=
EXTT7=
EXTT8=
EXTT9=
EXTT10=
EXTT11=
EXTT12=
EXTT13=
EXTT14=
EXTT15=
EXTT16=
EXTT17=
EXTT18=
EXTT19=
EXTT20=
EXTT21=
EXTT22=
EXTT23=
EXTT24=
PLAYORDER=
